<svg version="1" xmlns="http://www.w3.org/2000/svg" width="933.333" height="933.333" viewBox="0 0 700.000000 700.000000"><path d="M326.9.4c-.2.2-4 .6-8.4 1C297.1 3 271.9 7.6 248 14.5 211 25.1 172.5 44.4 141.5 68c-15.4 11.7-24 19.3-39.9 35.4-45.7 46.4-73.8 95.9-90.1 158.6-.9 3.6-1.9 7.6-2.2 9-.2 1.3-1.1 5.4-1.8 9.2-1.8 8.5-5.3 34.2-6.2 46.1-1 12-.9 47.8.1 58.7 6.3 70.5 31.8 130.5 79.5 187.5 7.3 8.7 33.5 35.5 41.6 42.5 36.9 32.1 74 53.7 116.3 67.9 8.2 2.8 25.6 7.7 30.5 8.6 1.2.3 5.6 1.1 9.7 2 9.8 1.9 12.6 2.4 18 3 2.5.3 5.9.8 7.5 1 16.6 2.5 72.4 2.5 85.2.1 1.1-.2 4.4-.7 7.4-1 5.7-.6 6.2-.7 19.9-3.2 34.1-6.1 72.6-20.1 104.5-38.2C559 634 598.8 599.4 627 563.5c3-3.9 5.9-7.5 6.3-8 2-2.4 12.5-17.9 15.8-23.2 15.7-25.2 26.8-49.7 35.2-77.3 7.8-26 11.6-45.7 14.4-75 1-10.6 1-52 .1-61.5-4.8-47.1-17-88.7-37.6-128.5-13-25.2-15.7-28.2-25.8-28.3-5.8-.1-9 1.6-12.7 6.5-4.7 6.3-3.9 11.3 3.8 24.2 2.6 4.4 7.5 13.9 11 21 14.9 30.8 23.2 58.2 28.9 95.1 3.2 20.7 2.6 71.4-1 88.3-.3 1.3-.7 4.3-1 6.5-.7 5.2-4.1 21.4-6.1 28.7-.8 3-1.6 6.2-1.8 7-2.5 11-13.7 39.5-20.9 53.7-17 33.1-34.1 56.2-62.5 84.3-55.6 55-121.9 85-200.9 90.7-12.7 1-41.2.9-53.2-.1-50.2-4-97.1-20.1-138.5-47.4-8.8-5.8-20.1-13.8-21.5-15.2-.3-.3-2.7-2.3-5.5-4.5-8.3-6.5-10.3-8.4-26-24-13.4-13.3-18.7-19-26-27.6-18.3-21.7-36.9-52.6-47.9-79.8-5.4-13.1-11.8-32.3-13.1-39.1-.2-1.2-.6-2.9-.9-3.8-1-3.2-5.1-26.1-6-33.2-2.7-21.2-2.7-57.7 0-79.5.6-5.4 1.7-12.7 2-14.5.2-.8.6-3.5 1-6 .8-5.7.7-5.3 3.8-18.4 4-16.5 9.5-33.3 16.3-49.6 3.6-8.6 13.3-27.3 19.1-37 14.6-24 29.8-43 52.6-65.5 25-24.6 48.2-41.4 78.3-56.6 23.2-11.7 52.2-22 75.8-27 3.3-.7 6.5-1.4 7-1.5 4.5-1.1 27.8-4.5 35-5.1 22.8-2 56.5-.6 77.5 3.1 1.4.3 4.3.7 6.5 1.1 2.2.3 5.6 1 7.5 1.5 1.9.5 4.6 1.1 6 1.3 1.4.3 4.5 1 6.9 1.7 7.4 2 12.7 1.5 16.6-1.5 4.8-3.6 6.6-7.6 6.4-13.5-.3-5.4-3.2-10-7.8-12.5-4.4-2.2-26.2-7.4-38.1-9-1.9-.3-4.5-.7-5.8-1-1.3-.2-5-.7-8.3-1-3.3-.4-7-.9-8.2-1.2-2.5-.6-56.2-1.4-56.8-.9z"/><path d="M219.6 154.6c-15.4 3.6-30.1 15.4-37.1 29.9-11.6 23.7-4.3 52.3 17.5 68.2 17.1 12.5 38.7 13.9 57.9 3.8l6.3-3.4 8.4 8.6c7.9 8.1 8.7 8.6 13.3 9.1 4.2.4 5 .1 6.5-1.9 3.3-4.8 2.3-7.2-7.9-17.5l-9.5-9.6 2.4-3.1c13.2-17.7 12.5-44.8-1.6-62.9-14.4-18.4-34.9-26.1-56.2-21.2zm22.8 15.9c11.5 3.5 19.9 10.6 24.9 21.2 9 19.4 1 42.5-17.9 51.5-15.8 7.5-33.4 4.7-45.3-7.3-7.4-7.4-11.4-17.2-11.3-28 .1-16.9 10.5-31.4 26.4-36.8 6.3-2.1 17.1-2.4 23.2-.6zM454.5 155c-7.7 2.2-13.7 5.3-19.9 10.1-6 4.8-13.5 14-16.4 20.3-7.5 15.9-6.4 35.8 2.8 50.8l3.1 5-9.3 9.5c-9.6 9.7-11.2 12.1-10.1 15.1 1.3 3.7 3.6 5.2 7.7 5.2 3.9 0 4.7-.6 13.5-9.4l9.4-9.5 2.6 1.8c8.4 5.9 19.1 9.2 30.1 9.2 10 0 14.9-1.2 23.9-5.4 4.3-2 14.9-9.9 16.3-12.1.3-.6 1.8-2.5 3.3-4.1 3.2-3.7 6.4-9.4 8.8-16 2.4-6.7 3.3-21.7 1.7-28.6-4.3-18.5-19.1-34.8-37.1-41-8.4-2.9-22-3.3-30.4-.9zm24.9 15.7c22.6 6.7 34.1 32.2 24.3 53.7-3.5 7.5-7.2 12-13.5 16.2-15.5 10.4-35.7 8.7-49-4-19.4-18.4-14.9-50.8 8.8-63.1 8.6-4.5 20.1-5.6 29.4-2.8zM336.5 234c-8.5 2.5-14 5.7-19.9 11.6-8.7 8.7-13 19.2-13.5 32.5-.4 12.5 4.2 24.7 12.7 33.6l5 5.2-4.1 1.6c-7.5 3-20.9 12.5-28.6 20.3-19.9 20.2-31.5 45.6-32.3 70.6-.2 6.4 0 7 2.5 9.2l2.8 2.4h177.8l2.7-2.4c2.3-1.9 2.7-3.1 2.7-7-.1-6.4-1.2-15.2-2.5-20.1-.5-2.2-1.2-4.7-1.3-5.5-.7-3.2-3.5-10.2-6.8-16.8-8.6-17.6-23-33.9-38.7-44.1-5.2-3.4-10.8-6.6-12.6-7.1l-3.1-1.1 5-5.2c8.5-8.8 13-21.2 12.6-34.7-.7-20-12.9-36.4-31.9-42.7-7-2.3-21.3-2.5-28.5-.3zm26.9 16.9c17.1 8.4 22.9 29.2 12.7 45.2-5.7 9.1-15.2 14.1-26.6 14.1-7.9-.1-14-2.4-20.4-7.8-9.3-7.8-12.7-22.4-8.1-34.6 3.3-8.9 9.5-14.6 21-19.1.8-.4 4.9-.5 9-.4 5.5.2 8.8.9 12.4 2.6zm2.1 77.7c30.2 7.8 57 39.2 62.9 73.6l.5 2.8h-79c-74.8 0-79-.1-78.5-1.8.3-.9.8-3.5 1.2-5.7 2.1-11.9 9.9-27.9 19.3-39.7 19.7-24.9 47.6-35.9 73.6-29.2zM155.6 296.6c-19.5 5.1-36.6 23.1-40.6 42.7-3.7 18.3 1.6 35.3 15.5 49.2 17.5 17.6 41.3 21.4 63.3 10.3 7-3.6 16.2-11.9 21.1-19 3.4-5.1 8.1-16.5 8.1-19.8 0-1.9.7-2 12.8-2 13.6 0 16.8-.9 18.8-4.9 1.2-2.3.8-5.1-1.3-8.6-1.1-1.8-2.4-2-15.7-2.3-13.5-.4-14.6-.5-14.6-2.3 0-3.1-4.1-13.1-7.7-18.7-4.4-6.9-13-15.3-19.6-19.1-11.3-6.5-27.7-8.7-40.1-5.5zm24.5 15.8c5.6 1.7 8.1 3.1 13.6 7.4 18 14 19 43.5 2.1 58.7-9 8.1-17.5 11-29.7 10.3-21.1-1.2-36.4-18.1-36.3-39.7 0-4.2.8-8.7 2.2-12.4 2.1-5.6 7.9-14.4 10.6-16 .7-.4 1.9-1.3 2.6-2 7.2-6.7 23.8-9.7 34.9-6.3zM518 296.6c-19.2 5.1-35.9 21.8-40.3 40.3l-1.1 5-13.9.3c-13.7.3-13.9.3-16.3 3.1-1.3 1.5-2.2 3.3-1.9 4 .2.6.6 2.4.9 3.9.8 3.8 4.9 4.8 19 4.8h12.1l1.2 4.8c1.5 6.3 4.9 13.7 8.7 18.7 21.2 28.3 59 31.5 83.1 7 11.5-11.7 16.5-23.4 16.6-39.1.1-23.4-18.2-46.6-41.7-52.8-6.8-1.8-19.8-1.8-26.4 0zm30.2 18.2c31.3 15.4 28.7 60.2-4.1 72.2-8.3 3-21.7 2.4-29.6-1.5-14.5-7-23-21-22.4-36.7.6-17.5 10.8-30.6 28.4-36.7 1.7-.6 7.1-.9 12.1-.8 7.9.2 10 .7 15.6 3.5zM283.4 430.5c-1.6.7-6.4 4.9-10.7 9.3l-7.9 7.9-5.6-3.4c-12.9-7.7-29-9.7-43.1-5.2-6.1 1.9-13.4 5.8-17.1 9-1.9 1.7-3.9 3.4-4.5 3.7-2.2 1.5-9.4 11-11.8 15.7-3.8 7.4-5.4 14-5.6 23.1-.3 9.8 1.1 15.6 5.8 25.3 9.3 19.3 31.6 32.4 52.1 30.7 4.1-.3 9.7-1.2 12.3-2.1 4.3-1.3 14.3-6.1 15.7-7.5.3-.3 2.3-2 4.5-3.9 10.5-9 18-23.3 19.1-36.4 1.1-12-2.5-26-8.9-35l-2-2.9 4.9-4.7c13.8-13.5 15.4-16.3 11.4-21.3-2.5-3.2-5-3.9-8.6-2.3zM243 454.2c11 3.4 19.2 10.4 24.3 20.7 4.1 8.5 4.8 21 1.5 29.9-8.2 22.3-32.4 32.1-54.3 22.2-20.2-9.2-28-36.9-15.8-56.3 9.1-14.4 28.1-21.5 44.3-16.5zM408.2 430.7c-.7.3-1.9 1.8-2.7 3.4-2.3 4.3-.2 7.9 9.7 17.5 7.7 7.5 8.3 8.3 7 10-4.1 5.5-8 16.8-8.8 25.3-2.5 26.9 17.2 53.2 44.1 58.9 12.4 2.7 28.2-.4 39.3-7.5 24.4-15.5 33.1-45.8 20.5-70.8-5.2-10.1-16.7-21.4-26.4-25.8-16.7-7.6-38.1-6-52 3.8l-4.5 3.2-9.3-9.3c-8-8-9.8-9.4-12.5-9.3-1.7 0-3.7.3-4.4.6zm71.9 23.8c9.6 2.8 18 10 22.9 19.5 3.4 6.7 4.3 10.8 4.2 18.1-.3 22.6-17.5 39-40.4 38.5-12.5-.3-23-5.6-30.2-15.5-8.4-11.4-9.9-27.9-3.7-40.5 8.6-17.5 28.1-25.8 47.2-20.1z"/></svg>